<svg width="20" height="20" viewBox="0 0 20 20" fill="none" xmlns="http://www.w3.org/2000/svg">
<g clip-path="url(#clip0_959_15847)">
<path d="M7.62356 -0.0126074C7.6572 -0.0125232 7.69085 -0.012439 7.72551 -0.0123523C8.21878 -0.010372 8.69646 0.00458698 9.17873 0.116787C9.21368 0.124548 9.24862 0.132309 9.28463 0.140305C10.553 0.427102 11.7007 0.995612 12.6735 1.86047C12.7328 1.91311 12.7927 1.96504 12.8526 2.01696C14.2379 3.23374 15.0934 5.05097 15.2725 6.8746C15.2795 7.01864 15.2814 7.16036 15.2725 7.30429C15.3099 7.30786 15.3474 7.31144 15.386 7.31512C15.574 7.34225 15.742 7.41089 15.917 7.48251C15.9514 7.49655 15.9859 7.51058 16.0214 7.52504C16.7868 7.84297 17.4533 8.28673 18.0459 8.86679C18.0824 8.90128 18.1188 8.93577 18.1564 8.97131C19.2537 10.0303 19.9805 11.6179 20.0122 13.1476C20.0138 13.2694 20.014 13.3911 20.0137 13.5128C20.0137 13.5446 20.0137 13.5764 20.0137 13.6091C20.0123 14.1259 19.9731 14.6148 19.8428 15.1168C19.8357 15.1459 19.8286 15.175 19.8213 15.205C19.7009 15.692 19.525 16.2002 19.2448 16.6192C19.0833 16.9571 19.2947 17.4115 19.3925 17.7558C19.41 17.8182 19.4275 17.8805 19.4449 17.9429C19.4906 18.1061 19.5366 18.2692 19.5826 18.4323C19.6566 18.6943 19.7301 18.9564 19.8035 19.2185C19.8292 19.31 19.8551 19.4014 19.8809 19.4928C19.8966 19.5486 19.9123 19.6043 19.9279 19.66C19.9417 19.7087 19.9555 19.7575 19.9696 19.8077C19.999 19.9215 19.999 19.9215 19.999 19.9996C19.5804 19.9089 19.168 19.799 18.7558 19.6828C18.73 19.6756 18.7041 19.6683 18.6776 19.6608C18.4344 19.5923 18.1914 19.5235 17.9485 19.4544C17.8143 19.4163 17.68 19.3784 17.5457 19.3407C17.4706 19.3195 17.3956 19.298 17.3206 19.2765C17.275 19.2637 17.2295 19.2509 17.1825 19.2378C17.1426 19.2264 17.1028 19.2151 17.0616 19.2034C16.8249 19.1512 16.6951 19.2013 16.4907 19.3209C15.5967 19.8174 14.5837 20.0168 13.5684 20.0118C13.5373 20.0117 13.5062 20.0116 13.4742 20.0116C11.8072 20.0043 10.243 19.3857 9.04291 18.2211C8.98631 18.1665 8.92881 18.1127 8.87127 18.059C8.31199 17.5243 7.90073 16.8602 7.58205 16.1593C7.56762 16.1276 7.55319 16.0959 7.53832 16.0632C7.30373 15.5313 7.30373 15.5313 7.30373 15.273C7.26528 15.2741 7.26528 15.2741 7.22605 15.2753C6.94804 15.2797 6.68426 15.2548 6.41018 15.2096C6.36777 15.2026 6.32536 15.1956 6.28166 15.1884C5.46579 15.0471 4.62077 14.7968 3.92666 14.3316C3.67646 14.2433 3.37146 14.3561 3.12497 14.426C3.0919 14.4352 3.05882 14.4443 3.02475 14.4538C2.91663 14.4837 2.80862 14.5141 2.70061 14.5444C2.62512 14.5654 2.54961 14.5864 2.4741 14.6073C2.27621 14.6623 2.07841 14.7175 1.88063 14.7728C1.56315 14.8616 1.24554 14.9499 0.927917 15.0381C0.816965 15.069 0.706054 15.1001 0.595149 15.1311C0.527575 15.1499 0.460001 15.1688 0.392425 15.1876C0.361481 15.1963 0.330536 15.205 0.298654 15.214C0.0860356 15.273 0.0860356 15.273 -0.000955688 15.273C0.0956743 14.8462 0.20336 14.4241 0.323733 14.0034C0.350821 13.9086 0.377688 13.8138 0.404501 13.719C0.480599 13.45 0.557012 13.181 0.633715 12.9122C0.68101 12.7464 0.728009 12.5804 0.774823 12.4145C0.792588 12.3517 0.810466 12.289 0.828464 12.2263C0.853518 12.1391 0.878191 12.0517 0.902784 11.9643C0.916886 11.9148 0.930987 11.8652 0.945516 11.8142C1.0069 11.539 0.958707 11.3875 0.819357 11.1495C0.227347 10.0784 -0.0182334 8.87629 -0.0156041 7.66073C-0.0155959 7.62546 -0.0155876 7.59018 -0.0155791 7.55383C-0.0142606 6.98874 0.0231226 6.44932 0.155294 5.89804C0.161985 5.86792 0.168676 5.8378 0.175569 5.80677C0.45024 4.58487 1.09441 3.40772 1.95217 2.4996C1.99465 2.44928 2.03697 2.39883 2.07912 2.34823C2.57145 1.78703 3.18384 1.34773 3.82717 0.976162C3.87017 0.950985 3.91317 0.925808 3.95748 0.899868C5.08027 0.260952 6.34044 -0.0183925 7.62356 -0.0126074ZM3.78811 2.46054C3.75397 2.48592 3.71983 2.51129 3.68465 2.53744C2.48178 3.47662 1.67316 4.76707 1.32717 6.2496C1.32077 6.27502 1.31438 6.30043 1.30779 6.32662C1.10488 7.15376 1.11579 8.19918 1.32717 9.02304C1.33881 9.07079 1.33881 9.07079 1.35069 9.11951C1.54285 9.89535 1.85969 10.6226 2.30373 11.2887C2.28645 11.5707 2.19344 11.8531 2.11544 12.1236C2.1 12.1782 2.1 12.1782 2.08424 12.2339C2.0518 12.3486 2.0191 12.4632 1.98635 12.5777C1.95333 12.6934 1.92038 12.8091 1.88762 12.9249C1.86733 12.9965 1.84691 13.0681 1.82632 13.1397C1.81719 13.1719 1.80806 13.2042 1.79865 13.2374C1.79056 13.2656 1.78246 13.2939 1.77413 13.3231C1.75247 13.4042 1.75247 13.4042 1.75686 13.5152C2.0272 13.4652 2.29043 13.4009 2.55474 13.3256C2.6309 13.3043 2.70707 13.283 2.78324 13.2617C2.90176 13.2285 3.02023 13.1951 3.13863 13.1614C3.25395 13.1286 3.36942 13.0964 3.48491 13.0643C3.52028 13.0541 3.55564 13.0439 3.59207 13.0334C3.89998 12.9485 3.89998 12.9485 4.06154 13.0074C4.13797 13.0512 4.21271 13.098 4.28615 13.1466C5.67721 14.031 7.40451 14.2939 9.008 13.9494C9.91213 13.7391 10.739 13.3656 11.4834 12.8121C11.5177 12.7867 11.5519 12.7612 11.5872 12.735C12.7897 11.7951 13.5983 10.5059 13.9444 9.02304C13.9508 8.99762 13.9571 8.97221 13.9637 8.94602C14.1666 8.11888 14.1557 7.07346 13.9444 6.2496C13.9366 6.21776 13.9288 6.18593 13.9208 6.15313C13.6408 5.02263 13.1042 4.0465 12.3037 3.20272C12.2857 3.1834 12.2676 3.16408 12.249 3.14417C11.1226 1.94463 9.53768 1.25826 7.89879 1.17439C6.4183 1.1285 4.9731 1.57258 3.78811 2.46054ZM15.2334 8.55429C15.2246 8.60024 15.2246 8.60024 15.2156 8.64712C14.916 10.1938 14.3805 11.6085 13.2803 12.773C13.2362 12.825 13.1922 12.877 13.1485 12.9293C12.6706 13.4751 12.0658 13.8926 11.4444 14.2574C11.4063 14.28 11.4063 14.28 11.3675 14.303C10.508 14.8071 9.5319 15.0755 8.55373 15.234C8.62528 15.5024 8.71809 15.7436 8.84914 15.9884C8.87474 16.0365 8.87474 16.0365 8.90086 16.0856C9.14211 16.5272 9.45985 16.8992 9.80373 17.2652C9.82423 17.2882 9.84472 17.3112 9.86584 17.335C10.7253 18.2601 12.0862 18.7684 13.3248 18.8269C14.3674 18.8532 15.6552 18.6022 16.4782 17.9137C16.6651 17.8182 16.7958 17.8734 16.9912 17.9293C17.036 17.9413 17.0807 17.9533 17.1269 17.9656C17.3025 18.0133 17.4776 18.0628 17.6527 18.1126C17.7279 18.1339 17.8032 18.155 17.8785 18.1762C17.9229 18.1888 17.9672 18.2014 18.013 18.2143C18.1239 18.2465 18.1239 18.2465 18.2412 18.2418C18.1793 17.886 18.0788 17.5417 17.9769 17.1956C17.955 17.121 17.9337 17.0463 17.9124 16.9715C17.8996 16.9275 17.8868 16.8836 17.8736 16.8383C17.8298 16.6097 17.9069 16.4823 18.0313 16.2935C18.3269 15.8288 18.532 15.3367 18.6709 14.8043C18.6835 14.7571 18.696 14.7098 18.7089 14.6612C18.8836 13.8631 18.8656 12.9306 18.6319 12.148C18.6248 12.1226 18.6176 12.0972 18.6103 12.0709C18.247 10.7807 17.3364 9.61431 16.1749 8.94979C16.1103 8.91442 16.0455 8.87941 15.9805 8.84481C15.9508 8.82898 15.9211 8.81314 15.8905 8.79682C15.6782 8.68839 15.4635 8.61593 15.2334 8.55429Z" fill="#313131"/>
<path d="M8.9537 3.87031C9.4975 4.24326 9.83458 4.77549 9.98032 5.41755C10.0815 6.08014 9.94013 6.70464 9.55841 7.25516C9.40392 7.46091 9.23521 7.65094 9.04053 7.81943C9.01545 7.84174 8.99037 7.86405 8.96454 7.88703C8.88432 7.95405 8.80328 8.01436 8.71857 8.07532C8.41817 8.30166 8.41817 8.30166 8.25104 8.62811C8.21571 8.8955 8.23094 9.14041 8.24219 9.41367C7.84258 9.41367 7.44297 9.41367 7.03125 9.41367C7.0213 9.21543 7.01279 9.01807 7.00765 8.81977C7.0055 8.75258 7.00258 8.6854 6.99883 8.61828C6.96691 8.03113 6.96691 8.03114 7.12366 7.83018C7.22602 7.71999 7.34054 7.62871 7.46094 7.53867C7.5101 7.49593 7.55903 7.45289 7.60742 7.40928C7.63174 7.38843 7.65606 7.36758 7.68112 7.34611C8.40491 6.76795 8.40491 6.76795 8.76083 5.95756C8.77414 5.61378 8.69317 5.3686 8.47168 5.10459C8.25407 4.87746 8.01486 4.75006 7.69913 4.72495C7.35554 4.73007 7.08952 4.83825 6.83807 5.06949C6.61204 5.30687 6.54743 5.54369 6.48438 5.85898C6.08477 5.85898 5.68516 5.85898 5.27344 5.85898C5.27344 5.25246 5.49265 4.622 5.92529 4.18006C6.78934 3.42548 7.95948 3.25334 8.9537 3.87031Z" fill="#313131"/>
<path d="M7.03125 10.5859C7.43086 10.5859 7.83047 10.5859 8.24219 10.5859C8.24219 10.9727 8.24219 11.3594 8.24219 11.7578C7.84258 11.7578 7.44297 11.7578 7.03125 11.7578C7.03125 11.3711 7.03125 10.9844 7.03125 10.5859Z" fill="#313131"/>
</g>
<defs>
<clipPath id="clip0_959_15847">
<rect width="20" height="20" fill="white"/>
</clipPath>
</defs>
</svg>
