<svg width="20" height="20" viewBox="0 0 20 20" fill="none" xmlns="http://www.w3.org/2000/svg">
<g clip-path="url(#clip0_1161_1333)">
<path d="M13.2807 0.780817C14.8006 1.82254 15.5846 3.21641 15.9369 4.99957C16.0006 5.64588 16.0097 6.2841 16.0053 6.93316C16.0084 7.09772 16.0115 7.26227 16.0147 7.43182C16.0143 8.14492 16.0091 8.61812 15.6616 9.25066C15.2761 9.5595 15.1322 9.62 14.6478 9.57964C14.4545 9.56353 14.2611 9.54742 14.0619 9.53082C14.0466 9.61964 14.0313 9.70847 14.0155 9.79998C13.8484 10.6629 13.5939 11.2887 13.1244 12.0308C13.0728 12.1339 13.0213 12.2371 12.9682 12.3433C13.1191 12.6584 13.2755 12.9709 13.4369 13.2808C13.4369 13.3839 13.4369 13.4871 13.4369 13.5933C13.5221 13.6086 13.6073 13.6239 13.6951 13.6397C15.4051 13.9788 16.9707 14.6678 18.0072 16.1226C18.7241 17.286 19.1893 18.4676 19.0619 19.8433C18.8132 20.092 18.5565 20.0193 18.2117 20.0194C18.0618 20.0198 17.9119 20.0203 17.7575 20.0207C17.5918 20.0204 17.426 20.0201 17.2553 20.0198C16.995 20.0202 16.995 20.0202 16.7295 20.0206C16.1528 20.0213 15.5761 20.0208 14.9994 20.0203C14.6006 20.0204 14.2019 20.0206 13.8031 20.0208C12.9661 20.021 12.1291 20.0207 11.2921 20.0199C10.3232 20.0191 9.35423 20.0194 8.38528 20.0202C7.45482 20.021 6.52435 20.0209 5.59388 20.0205C5.19715 20.0204 4.80043 20.0205 4.4037 20.0209C3.85031 20.0213 3.29693 20.0207 2.74354 20.0198C2.57779 20.0201 2.41204 20.0204 2.24126 20.0207C2.09139 20.0203 1.94153 20.0199 1.78712 20.0194C1.65611 20.0193 1.5251 20.0193 1.39013 20.0192C1.09315 19.9996 1.09315 19.9996 0.936901 19.8433C0.798525 18.3489 1.36113 16.9949 2.22779 15.7906C3.2645 14.5605 4.57371 14.0171 6.09315 13.5933C6.24784 13.5933 6.40253 13.5933 6.5619 13.5933C6.61024 13.4483 6.65858 13.3033 6.70839 13.1539C6.81581 12.8316 6.92323 12.5093 7.03065 12.1871C6.82952 11.921 6.62107 11.6604 6.40565 11.4058C6.40565 11.3027 6.40565 11.1996 6.40565 11.0933C6.26385 11.1094 6.12206 11.1255 5.97596 11.1421C5.46815 11.0933 5.46815 11.0933 5.09706 10.7613C4.80852 10.2508 4.78949 9.95146 4.84315 9.37457C4.74325 9.32945 4.64335 9.28433 4.54042 9.23785C4.21815 9.06207 4.21815 9.06207 4.0619 8.74957C4.01941 8.15482 4.02569 7.55854 4.02284 6.96246C4.01962 6.79941 4.01639 6.63636 4.01307 6.46838C4.00325 4.49114 4.45984 3.05184 5.78065 1.56207C6.16987 1.18611 6.56305 0.895881 7.03065 0.624567C7.13861 0.560315 7.24657 0.496063 7.3578 0.429865C9.17161 -0.467721 11.5823 -0.248084 13.2807 0.780817ZM5.9369 2.81207C5.38429 3.65483 5.06494 4.46332 4.9994 5.46832C5.20565 5.46832 5.4119 5.46832 5.6244 5.46832C5.65864 5.33437 5.69288 5.20043 5.72816 5.06243C6.11134 3.6808 6.4926 2.68901 7.77284 1.96246C9.02112 1.47501 10.6197 1.50854 11.9019 1.85076C12.8133 2.25877 13.454 2.85825 13.9057 3.74957C14.102 4.31556 14.2516 4.8822 14.3744 5.46832C14.5807 5.46832 14.7869 5.46832 14.9994 5.46832C14.7348 3.95262 14.2256 2.7777 13.0017 1.79766C10.6521 0.198073 7.76628 0.708458 5.9369 2.81207ZM7.4994 3.28082C7.08406 3.72984 6.80877 4.07537 6.71815 4.68707C7.26613 4.47422 7.26613 4.47422 7.79115 4.2116C8.4025 3.93728 9.03283 3.95896 9.6869 4.06207C10.1752 4.41363 10.1752 4.41363 10.6244 4.84332C11.5028 5.4091 12.414 5.62151 13.4369 5.78082C13.3947 4.83092 13.2865 4.19054 12.6557 3.43707C11.1269 2.06115 9.12957 1.98409 7.4994 3.28082ZM6.68824 6.0689C6.23329 7.2821 6.71031 8.93853 7.03065 10.1558C7.76953 10.2312 7.76953 10.2312 8.4076 9.93121C8.46883 9.85064 8.53007 9.77007 8.59315 9.68707C8.95868 9.5043 9.18279 9.50993 9.58924 9.51128C9.76992 9.51068 9.76992 9.51068 9.95424 9.51006C10.3014 9.53021 10.6035 9.59115 10.9369 9.68707C10.9761 9.90785 11.0111 10.1294 11.0443 10.3511C11.0643 10.4744 11.0842 10.5977 11.1047 10.7247C11.0932 11.0933 11.0932 11.0933 10.9198 11.4473C10.5108 11.8225 10.2449 11.8019 9.69667 11.7964C9.53412 11.7981 9.37158 11.7997 9.20411 11.8013C8.65084 11.7003 8.50854 11.4847 8.1244 11.0933C7.77775 11.1146 7.77775 11.1146 7.4994 11.2496C7.69717 11.4295 7.89593 11.6083 8.0951 11.7867C8.26097 11.9362 8.26097 11.9362 8.43019 12.0888C9.12209 12.6405 9.93803 12.5682 10.7807 12.4996C11.6811 12.2171 12.2903 11.5485 12.8119 10.7808C13.1694 9.95601 13.2231 9.10787 13.3002 8.22222C13.3137 8.0774 13.3272 7.93259 13.3411 7.78338C13.374 7.42844 13.4059 7.07343 13.4369 6.71832C13.2935 6.68045 13.1501 6.64258 13.0023 6.60357C10.558 5.93601 10.558 5.93601 9.57948 5.11675C9.24165 4.82073 9.24165 4.82073 8.84706 4.76519C8.04162 4.91861 7.19667 5.41545 6.68824 6.0689ZM4.9994 6.24957C4.9994 6.97144 4.9994 7.69332 4.9994 8.43707C5.38612 8.51441 5.38612 8.51441 5.78065 8.59332C5.79667 7.7924 5.78626 7.03863 5.6244 6.24957C5.41815 6.24957 5.2119 6.24957 4.9994 6.24957ZM14.3744 6.24957C14.2125 7.03863 14.2021 7.7924 14.2182 8.59332C14.476 8.54175 14.7338 8.49019 14.9994 8.43707C14.9994 7.71519 14.9994 6.99332 14.9994 6.24957C14.7932 6.24957 14.5869 6.24957 14.3744 6.24957ZM5.78065 9.53082C5.9369 9.99957 5.9369 9.99957 5.9369 9.99957L5.78065 9.53082ZM8.90565 10.4683C8.95721 10.623 9.00878 10.7777 9.0619 10.9371C9.42284 10.9371 9.78378 10.9371 10.1557 10.9371C10.2072 10.7824 10.2588 10.6277 10.3119 10.4683C9.5908 10.3055 9.5908 10.3055 8.90565 10.4683ZM11.7078 13.4322C11.5791 13.5627 11.4504 13.6932 11.3178 13.8277C11.1887 13.9582 11.0595 14.0887 10.9265 14.2232C10.777 14.3755 10.777 14.3755 10.6244 14.5308C10.7735 14.7104 10.9234 14.8893 11.0736 15.0679C11.157 15.1676 11.2404 15.2673 11.3263 15.37C11.5498 15.6414 11.5498 15.6414 11.8744 15.7808C12.0185 15.4866 12.1575 15.1898 12.2943 14.8921C12.3723 14.7272 12.4502 14.5622 12.5305 14.3923C12.7104 13.9023 12.7104 13.9023 12.4536 13.4535C12.3656 13.345 12.2776 13.2364 12.1869 13.1246C11.9752 13.1066 11.9752 13.1066 11.7078 13.4322ZM7.65565 13.2808C7.45739 13.6226 7.45739 13.6226 7.34315 14.0621C7.47314 14.5252 7.47314 14.5252 7.71424 14.9703C7.78957 15.1227 7.8649 15.2752 7.94252 15.4323C8.00254 15.5473 8.06256 15.6623 8.1244 15.7808C8.48534 15.4714 8.84628 15.1621 9.21815 14.8433C8.96535 14.3377 8.81846 14.0882 8.4369 13.7105C8.35633 13.6291 8.27577 13.5478 8.19276 13.4639C7.97608 13.2479 7.97608 13.2479 7.65565 13.2808ZM9.53065 13.4371C9.68534 13.5918 9.84003 13.7464 9.9994 13.9058C10.1025 13.7511 10.2057 13.5964 10.3119 13.4371C10.0541 13.4371 9.79628 13.4371 9.53065 13.4371ZM13.4369 14.5308C13.3945 14.6134 13.3521 14.696 13.3083 14.781C11.825 17.6589 11.825 17.6589 11.087 18.6721C10.9088 18.9033 10.9088 18.9033 10.9369 19.2183C13.3088 19.2183 15.6807 19.2183 18.1244 19.2183C17.7481 17.5249 17.2827 16.2729 15.7807 15.3121C14.6522 14.7559 14.6522 14.7559 13.4369 14.5308ZM3.10487 16.2117C2.31559 17.1556 2.04795 18.0035 1.8744 19.2183C4.24628 19.2183 6.61815 19.2183 9.0619 19.2183C8.80186 18.5682 8.53654 18.0733 8.16346 17.4898C7.56159 16.5352 7.04683 15.5503 6.5619 14.5308C5.3022 14.5308 3.97742 15.3616 3.10487 16.2117ZM9.57338 15.7076C9.42654 15.8598 9.42654 15.8598 9.27674 16.0152C9.17805 16.1167 9.07936 16.2182 8.97767 16.3228C8.90234 16.4018 8.82701 16.4807 8.7494 16.5621C9.00016 17.2915 9.37048 17.9828 9.84315 18.5933C9.94628 18.5933 10.0494 18.5933 10.1557 18.5933C10.4529 18.2295 10.4529 18.2295 10.7416 17.773C10.8439 17.6207 10.9462 17.4685 11.0516 17.3116C11.2963 16.8972 11.2963 16.8972 11.1493 16.5328C10.8512 16.1353 10.5246 15.8004 10.1557 15.4683C9.82202 15.4338 9.82202 15.4338 9.57338 15.7076Z" fill="black"/>
<path d="M15.4688 16.0938C16.2307 16.3114 16.5743 16.7092 17.0312 17.3438C17.1777 17.6953 17.1777 17.6953 17.1875 17.9688C17.0844 18.0719 16.9813 18.175 16.875 18.2812C16.4134 18.2593 16.2661 18.1423 15.9497 17.8021C15.8554 17.6734 15.7612 17.5447 15.6641 17.4121C15.5682 17.283 15.4723 17.1539 15.3735 17.0209C15.3018 16.9212 15.2301 16.8215 15.1562 16.7188C15.2594 16.5125 15.3625 16.3063 15.4688 16.0938Z" fill="black"/>
<path d="M13.9062 15.4688C14.1641 15.4688 14.4219 15.4688 14.6875 15.4688C14.6875 15.7266 14.6875 15.9844 14.6875 16.25C14.4297 16.25 14.1719 16.25 13.9062 16.25C13.9062 15.9922 13.9062 15.7344 13.9062 15.4688Z" fill="black"/>
</g>
<defs>
<clipPath id="clip0_1161_1333">
<rect width="20" height="20" fill="white"/>
</clipPath>
</defs>
</svg>
