<svg width="20" height="20" viewBox="0 0 20 20" fill="none" xmlns="http://www.w3.org/2000/svg">
<path d="M15.8333 9.16666H4.16667C3.24619 9.16666 2.5 9.91285 2.5 10.8333V16.6667C2.5 17.5871 3.24619 18.3333 4.16667 18.3333H15.8333C16.7538 18.3333 17.5 17.5871 17.5 16.6667V10.8333C17.5 9.91285 16.7538 9.16666 15.8333 9.16666Z" stroke="#5F7184" stroke-width="1.3" stroke-linecap="round" stroke-linejoin="round"/>
<path d="M5.83325 9.16666V5.83332C5.83325 4.72825 6.27224 3.66845 7.05364 2.88704C7.83504 2.10564 8.89485 1.66666 9.99992 1.66666C11.105 1.66666 12.1648 2.10564 12.9462 2.88704C13.7276 3.66845 14.1666 4.72825 14.1666 5.83332V9.16666" stroke="#5F7184" stroke-width="1.3" stroke-linecap="round" stroke-linejoin="round"/>
</svg>
