<svg width="20" height="20" viewBox="0 0 20 20" fill="none" xmlns="http://www.w3.org/2000/svg">
<path d="M13.1249 5C13.1249 5.8288 12.7957 6.62366 12.2096 7.20971C11.6236 7.79576 10.8287 8.125 9.9999 8.125C9.1711 8.125 8.37624 7.79576 7.79019 7.20971C7.20414 6.62366 6.8749 5.8288 6.8749 5C6.8749 4.1712 7.20414 3.37634 7.79019 2.79029C8.37624 2.20424 9.1711 1.875 9.9999 1.875C10.8287 1.875 11.6236 2.20424 12.2096 2.79029C12.7957 3.37634 13.1249 4.1712 13.1249 5ZM3.75073 16.765C3.77751 15.1253 4.44768 13.5618 5.61671 12.4117C6.78575 11.2616 8.35997 10.6171 9.9999 10.6171C11.6398 10.6171 13.2141 11.2616 14.3831 12.4117C15.5521 13.5618 16.2223 15.1253 16.2491 16.765C14.2886 17.664 12.1567 18.1279 9.9999 18.125C7.7699 18.125 5.65323 17.6383 3.75073 16.765Z" stroke="#5F7184" stroke-width="1.5" stroke-linecap="round" stroke-linejoin="round"/>
</svg>
