<svg width="20" height="20" viewBox="0 0 20 20" fill="none" xmlns="http://www.w3.org/2000/svg">
<g clip-path="url(#clip0_1161_1399)">
<path d="M13.222 -0.0684195C13.3894 -0.0681174 13.3894 -0.0681174 13.5601 -0.0678092C14.1285 0.0436478 14.523 0.249022 14.875 0.720879C15.0735 1.03862 15.2575 1.36154 15.4388 1.68939C15.5063 1.80686 15.5739 1.92432 15.6435 2.04534C15.9685 2.61273 16.2826 3.18452 16.5844 3.76459C17.1571 4.93944 17.1571 4.93944 18.1732 5.6933C18.2725 5.71888 18.3718 5.74446 18.4741 5.77081C18.9486 6.05804 19.087 6.51784 19.2181 7.03119C19.2701 7.57685 19.2627 8.11459 19.2474 8.66205C19.2442 8.87822 19.2442 8.87822 19.241 9.09876C19.2355 9.45133 19.2278 9.80371 19.2181 10.1562C19.318 10.2013 19.4179 10.2464 19.5208 10.2929C19.8431 10.4687 19.8431 10.4687 19.9993 10.7812C20.0415 11.4249 20.0355 12.0699 20.0384 12.7148C20.0432 12.9843 20.0432 12.9843 20.0482 13.2592C20.0494 13.5184 20.0494 13.5184 20.0506 13.7829C20.0521 13.9413 20.0535 14.0997 20.055 14.2629C19.9913 14.7484 19.8709 14.9649 19.5306 15.3124C19.4275 15.3124 19.3243 15.3124 19.2181 15.3124C19.2205 15.4014 19.223 15.4903 19.2255 15.5819C19.2353 15.9901 19.2414 16.3983 19.2474 16.8066C19.2513 16.9465 19.2552 17.0863 19.2593 17.2305C19.2691 18.1227 19.1962 18.7509 18.7493 19.5312C18.3018 19.9401 18.0116 20.0587 17.4089 20.0616C17.1947 20.0642 17.1947 20.0642 16.9762 20.0669C16.7429 20.0663 16.7429 20.0663 16.5048 20.0656C16.2578 20.0675 16.2578 20.0675 16.0057 20.0696C15.4607 20.0732 14.9157 20.0734 14.3707 20.0732C13.992 20.0743 13.6133 20.0755 13.2346 20.0768C12.4404 20.0789 11.6463 20.0791 10.8521 20.0782C9.83455 20.0773 8.81707 20.0821 7.79949 20.0884C7.01721 20.0924 6.23496 20.0929 5.45267 20.0923C5.07751 20.0926 4.70236 20.0941 4.32722 20.0969C3.8024 20.1003 3.27782 20.0988 2.75301 20.0961C2.5981 20.0981 2.4432 20.1002 2.28361 20.1023C1.58052 20.0938 1.0904 20.0745 0.53035 19.6228C-0.0497975 18.9972 -0.0260518 18.5538 -0.0308065 17.7357C-0.0320843 17.6149 -0.033362 17.4942 -0.0346785 17.3699C-0.0385625 16.9695 -0.0411427 16.5691 -0.043395 16.1688C-0.0442269 16.0321 -0.0450581 15.8955 -0.0459151 15.7547C-0.0500922 15.0314 -0.05312 14.3082 -0.0553732 13.585C-0.0579747 12.8378 -0.0649718 12.0907 -0.0729315 11.3436C-0.0781893 10.7692 -0.0799949 10.1948 -0.080878 9.62042C-0.0819278 9.345 -0.0843088 9.06958 -0.0880485 8.79419C-0.092987 8.4085 -0.0930003 8.0231 -0.0918417 7.63738C-0.094405 7.5238 -0.0969684 7.41021 -0.0996094 7.29319C-0.0921187 6.68345 -0.0197827 6.42963 0.370628 5.95082C1.08615 5.38203 1.69116 5.31315 2.58051 5.2868C3.67979 5.19737 4.4143 4.78366 5.33136 4.19916C5.65696 4.00039 5.98269 3.80183 6.30853 3.60346C6.47654 3.49973 6.64455 3.396 6.81764 3.28912C7.71518 2.74177 8.62824 2.22175 9.54035 1.69916C9.87424 1.50676 10.2081 1.31429 10.5419 1.12177C10.6923 1.03562 10.8427 0.94948 10.9977 0.860726C11.2463 0.717009 11.4938 0.571216 11.739 0.421807C12.2435 0.116799 12.6259 -0.0846767 13.222 -0.0684195ZM12.5311 1.24201C12.3474 1.34274 12.3474 1.34274 12.16 1.44552C11.9606 1.55657 11.9606 1.55657 11.7571 1.66986C11.6201 1.74581 11.483 1.82175 11.3418 1.9C10.2649 2.50032 9.19717 3.11583 8.1341 3.74017C7.98903 3.82501 7.84396 3.90984 7.69449 3.99725C7.01806 4.39769 6.37698 4.79573 5.78058 5.31244C7.16375 5.47226 7.98223 4.95128 9.13995 4.23822C9.3192 4.1308 9.49862 4.02367 9.67821 3.91683C10.0356 3.70366 10.3917 3.48871 10.7475 3.27272C11.3224 2.92444 11.9015 2.58401 12.4819 2.24504C12.9576 1.96724 13.4316 1.68676 13.9056 1.40619C13.6908 1.1653 13.6908 1.1653 13.4368 0.93744C13.048 0.93744 12.8715 1.05474 12.5311 1.24201ZM13.3264 2.83441C13.2385 2.88495 13.1506 2.93549 13.0601 2.98756C12.8738 3.09495 12.6877 3.20268 12.5017 3.31072C12.2194 3.4746 11.9363 3.63706 11.6531 3.79938C11.4719 3.90407 11.2907 4.00884 11.1096 4.11371C10.9454 4.20863 10.7813 4.30354 10.6122 4.40134C10.1707 4.67795 9.77375 4.97861 9.37433 5.31244C10.7944 5.49469 11.7336 4.85746 12.8997 4.14056C13.0889 4.02737 13.2782 3.91445 13.4677 3.80182C13.9278 3.5268 14.3861 3.24908 14.8431 2.96869C14.74 2.76244 14.6368 2.55619 14.5306 2.34369C14.0492 2.34369 13.7407 2.59576 13.3264 2.83441ZM14.0423 4.53119C13.9394 4.59081 13.8365 4.65043 13.7304 4.71185C13.476 4.85937 13.222 5.0077 12.9681 5.15619C12.9681 5.20775 12.9681 5.25931 12.9681 5.31244C13.9993 5.31244 15.0306 5.31244 16.0931 5.31244C15.8972 4.82278 15.7086 4.37003 15.4681 3.90619C14.9302 3.90619 14.4966 4.26492 14.0423 4.53119ZM0.93683 7.18744C0.819286 7.7064 0.819286 7.7064 0.83574 8.28211C0.834371 8.38917 0.833002 8.49623 0.831592 8.60654C0.828166 8.9588 0.830425 9.31076 0.83307 9.66303C0.832543 9.90876 0.831785 10.1545 0.830805 10.4002C0.829655 10.9146 0.831322 11.4289 0.834977 11.9432C0.839428 12.6016 0.836865 13.2598 0.832186 13.9182C0.829359 14.4254 0.830263 14.9326 0.832285 15.4398C0.832806 15.6825 0.832172 15.9253 0.830349 16.168C0.828358 16.5076 0.831397 16.8469 0.83574 17.1865C0.836362 17.3795 0.836983 17.5725 0.837624 17.7713C0.970109 18.4522 1.14591 18.6705 1.71808 19.0624C2.22387 19.1712 2.71547 19.1645 3.23118 19.1561C3.38269 19.1567 3.5342 19.1573 3.6903 19.158C4.19041 19.159 4.69029 19.1545 5.19037 19.1497C5.53807 19.1491 5.88577 19.1487 6.23348 19.1486C6.96182 19.1477 7.69008 19.1441 8.4184 19.1385C9.35245 19.1315 10.2864 19.1292 11.2205 19.1286C11.9383 19.1279 12.6561 19.1255 13.3739 19.1225C13.7183 19.1211 14.0627 19.1201 14.4072 19.1194C14.8882 19.1179 15.3692 19.1145 15.8502 19.1103C16.0641 19.1102 16.0641 19.1102 16.2824 19.11C16.4136 19.1084 16.5448 19.1069 16.68 19.1053C16.8504 19.1042 16.8504 19.1042 17.0243 19.1031C17.3979 19.0554 17.6483 18.947 17.9681 18.7499C18.1516 18.383 18.1423 18.1659 18.1396 17.7575C18.1391 17.6246 18.1386 17.4916 18.1381 17.3547C18.1368 17.2157 18.1354 17.0767 18.1341 16.9335C18.1334 16.7933 18.1327 16.6532 18.132 16.5087C18.1301 16.162 18.1275 15.8154 18.1243 15.4687C17.9696 15.4665 17.9696 15.4665 17.8118 15.4643C17.3397 15.4558 16.8678 15.4428 16.3958 15.4296C16.2336 15.4274 16.0713 15.4252 15.9042 15.4229C14.9002 15.391 14.2477 15.2967 13.4368 14.6874C12.8759 14.0309 12.7072 13.2289 12.7526 12.3809C12.8992 11.5152 13.1867 10.9691 13.8909 10.44C14.6791 10.016 15.5201 10.051 16.3958 10.039C16.5623 10.0344 16.7288 10.0297 16.9003 10.025C17.3083 10.014 17.7162 10.0057 18.1243 9.99994C18.1425 9.51822 18.1536 9.03659 18.1634 8.55463C18.1686 8.41827 18.1739 8.28191 18.1793 8.14142C18.1813 8.00949 18.1833 7.87756 18.1854 7.74164C18.1886 7.62054 18.1919 7.49944 18.1953 7.37466C18.0898 6.86394 17.9209 6.71666 17.4993 6.40619C16.9979 6.31065 16.5013 6.31923 15.9921 6.32284C15.8393 6.32149 15.6866 6.32015 15.5292 6.31876C15.024 6.31521 14.5189 6.31627 14.0136 6.31769C13.6626 6.31687 13.3115 6.31589 12.9604 6.31475C12.2245 6.31313 11.4886 6.31384 10.7526 6.31612C9.80926 6.31881 8.86606 6.31514 7.92272 6.30964C7.19767 6.30621 6.47266 6.30643 5.74761 6.30773C5.39981 6.30786 5.052 6.30678 4.7042 6.30448C4.21788 6.30176 3.73183 6.30403 3.24552 6.30758C3.02986 6.30484 3.02986 6.30484 2.80984 6.30204C1.93021 6.31512 1.45573 6.40795 0.93683 7.18744ZM13.9153 11.7578C13.6955 12.3269 13.6552 12.6744 13.7493 13.2812C14.0683 13.8171 14.4033 14.282 15.0109 14.4811C15.691 14.5556 16.3664 14.5663 17.0501 14.5703C17.1917 14.5735 17.3333 14.5767 17.4792 14.58C17.6831 14.5812 17.6831 14.5812 17.8912 14.5825C18.0764 14.5847 18.0764 14.5847 18.2654 14.5869C18.6817 14.5161 18.8163 14.4026 19.0618 14.0624C19.1084 13.6058 19.1273 13.19 19.1204 12.7343C19.1222 12.6137 19.124 12.493 19.1259 12.3687C19.1353 11.7147 19.1353 11.7147 18.8689 11.1376C18.5148 10.8806 18.3031 10.877 17.868 10.8752C17.7264 10.8746 17.5848 10.874 17.4389 10.8734C17.2913 10.8752 17.1436 10.877 16.9915 10.8788C16.8463 10.877 16.7011 10.8752 16.5515 10.8734C15.5331 10.8777 14.6197 10.9398 13.9153 11.7578Z" fill="black"/>
<path d="M16.0938 11.8754C16.4062 12.1879 16.4062 12.1879 16.4648 12.725C16.4062 13.2816 16.4062 13.2816 16.1523 13.5941C15.6544 13.8038 15.3576 13.7394 14.8438 13.5941C14.5312 13.2816 14.5312 13.2816 14.4727 12.7445C14.5312 12.1879 14.5312 12.1879 14.7852 11.8754C15.2831 11.6657 15.5799 11.7301 16.0938 11.8754Z" fill="black"/>
</g>
<defs>
<clipPath id="clip0_1161_1399">
<rect width="20" height="20" fill="white"/>
</clipPath>
</defs>
</svg>
